<svg width="50" height="50" viewBox="0 0 50 50" fill="none" xmlns="http://www.w3.org/2000/svg">
<path d="M10.1562 42.1875C12.3136 42.1875 14.0625 40.4386 14.0625 38.2812C14.0625 36.1239 12.3136 34.375 10.1562 34.375C7.99889 34.375 6.25 36.1239 6.25 38.2812C6.25 40.4386 7.99889 42.1875 10.1562 42.1875Z" stroke="#8257E5" stroke-width="2" stroke-miterlimit="10" stroke-linecap="round" stroke-linejoin="round"/>
<path d="M22.6562 42.1875C24.8136 42.1875 26.5625 40.4386 26.5625 38.2812C26.5625 36.1239 24.8136 34.375 22.6562 34.375C20.4989 34.375 18.75 36.1239 18.75 38.2812C18.75 40.4386 20.4989 42.1875 22.6562 42.1875Z" stroke="#8257E5" stroke-width="2" stroke-miterlimit="10" stroke-linecap="round" stroke-linejoin="round"/>
<path d="M35.1562 42.1875C37.3136 42.1875 39.0625 40.4386 39.0625 38.2812C39.0625 36.1239 37.3136 34.375 35.1562 34.375C32.9989 34.375 31.25 36.1239 31.25 38.2812C31.25 40.4386 32.9989 42.1875 35.1562 42.1875Z" stroke="#8257E5" stroke-width="2" stroke-miterlimit="10" stroke-linecap="round" stroke-linejoin="round"/>
<path d="M4.6875 37.5V29.6875H34.375" stroke="#8257E5" stroke-width="2" stroke-miterlimit="10" stroke-linecap="round" stroke-linejoin="round"/>
<path d="M39.0625 37.5H45.3125L34.375 25V34.5313" stroke="#8257E5" stroke-width="2" stroke-miterlimit="10" stroke-linecap="round" stroke-linejoin="round"/>
<path d="M34.375 15.625H28.125V29.6875H34.375V15.625Z" stroke="#8257E5" stroke-width="2" stroke-miterlimit="10" stroke-linecap="round" stroke-linejoin="round"/>
<path d="M34.375 15.625H28.125L25 10.9375H37.5L34.375 15.625Z" stroke="#8257E5" stroke-width="2" stroke-miterlimit="10" stroke-linecap="round" stroke-linejoin="round"/>
<path d="M18.75 15.625H6.25V29.6875H18.75V15.625Z" stroke="#8257E5" stroke-width="2" stroke-miterlimit="10" stroke-linecap="round" stroke-linejoin="round"/>
<path d="M4.6875 15.625H20.3125" stroke="#8257E5" stroke-width="2" stroke-miterlimit="10" stroke-linecap="round" stroke-linejoin="round"/>
<path d="M18.75 23.4375H28.125" stroke="#8257E5" stroke-width="2" stroke-miterlimit="10" stroke-linecap="round" stroke-linejoin="round"/>
<path d="M14.0625 37.5H18.75" stroke="#8257E5" stroke-width="2" stroke-miterlimit="10" stroke-linecap="round" stroke-linejoin="round"/>
<path d="M26.5625 37.5H31.25" stroke="#8257E5" stroke-width="2" stroke-miterlimit="10" stroke-linecap="round" stroke-linejoin="round"/>
</svg>
