<svg width="24" height="24" viewBox="0 0 24 24" fill="none" xmlns="http://www.w3.org/2000/svg">
<path fill-rule="evenodd" clip-rule="evenodd" d="M0.1368 13.8228C0.0456 13.2252 0 12.612 0 12C0 5.3832 5.3832 -1.90735e-06 12 -1.90735e-06C18.6168 -1.90735e-06 24 5.3832 24 12C24 18.6168 18.6168 24 12 24C8.2464 24 4.7796 22.2924 2.4876 19.3176C2.1936 18.936 2.2656 18.3864 2.646 18.0936C3.0276 17.7984 3.5748 17.8716 3.8712 18.252C5.8284 20.7972 8.7924 22.2552 12 22.2552C17.6544 22.2552 22.2552 17.6556 22.2552 12C22.2552 6.3456 17.6544 1.746 12 1.746C6.3456 1.746 1.7448 6.3456 1.7448 12C1.7448 12.5244 1.7844 13.0488 1.8624 13.5588C1.9344 14.034 1.608 14.4792 1.1316 14.5524C0.6528 14.6316 0.21 14.2992 0.1368 13.8228ZM15.353 12.001C15.353 12.2398 15.2582 12.469 15.0878 12.6382L10.9046 16.8034C10.5518 17.155 9.98184 17.1538 9.63144 16.801C9.28104 16.4482 9.28104 15.8794 9.63384 15.529L13.1774 12.001L9.63384 8.47296C9.28104 8.12256 9.28104 7.55256 9.63144 7.19976C9.98184 6.84816 10.5518 6.84696 10.9046 7.19736L15.0878 11.3638C15.2582 11.5318 15.353 11.761 15.353 12.001Z" fill="#8257E5"/>
</svg>
