<svg width="50" height="50" viewBox="0 0 50 50" fill="none" xmlns="http://www.w3.org/2000/svg">
<g clip-path="url(#clip0_213_3)">
<path d="M46.0939 34.2247V29.1013C46.0939 27.0552 44.4292 25.3905 42.3831 25.3905H36.1333C35.0521 25.3905 34.0779 25.8554 33.399 26.5957C32.7201 25.8556 31.7458 25.3906 30.6646 25.3906H24.4148C22.3687 25.3906 20.704 27.0553 20.704 29.1014V34.2248C18.4454 34.9159 16.7979 37.0196 16.7979 39.5016V49.0228C16.7979 49.5621 17.2352 49.9994 17.7744 49.9994H49.0235C49.5628 49.9994 50.0001 49.5621 50.0001 49.0228V39.5016C50.0001 37.0196 48.3526 34.9157 46.0939 34.2247ZM34.3755 29.1014C34.3755 28.1322 35.1641 27.3436 36.1333 27.3436H42.3831C43.3523 27.3436 44.1409 28.1322 44.1409 29.1014V33.9842H34.3756V29.1014H34.3755ZM22.6571 29.1014C22.6571 28.1322 23.4457 27.3436 24.4149 27.3436H30.6647C31.634 27.3436 32.4226 28.1322 32.4226 29.1014V33.9842H22.6572V29.1014H22.6571ZM48.0472 43.3591H25.2782C24.739 43.3591 24.3017 43.7964 24.3017 44.3356C24.3017 44.8749 24.739 45.3122 25.2782 45.3122H48.047V48.0463H18.751V39.8433H25.1443C25.6836 39.8433 26.1209 39.406 26.1209 38.8668C26.1209 38.3275 25.6836 37.8902 25.1443 37.8902H19.1376C19.7271 36.7325 20.9298 35.9372 22.3154 35.9372H33.3991H44.4828C46.4481 35.9372 48.0472 37.5362 48.0472 39.5015V43.3591Z" fill="#8257E5"/>
<path d="M22.0778 43.645C21.8962 43.4633 21.6443 43.3589 21.3875 43.3589C21.1306 43.3589 20.8787 43.4633 20.697 43.645C20.5154 43.8268 20.4109 44.0786 20.4109 44.3354C20.4109 44.5933 20.5153 44.8442 20.697 45.0258C20.8787 45.2074 21.1306 45.312 21.3875 45.312C21.6443 45.312 21.8962 45.2075 22.0778 45.0258C22.2594 44.8442 22.364 44.5923 22.364 44.3354C22.364 44.0786 22.2595 43.8267 22.0778 43.645Z" fill="#8257E5"/>
<path d="M7.72183 38.6647C7.53921 38.483 7.28833 38.3785 7.03149 38.3785C6.77456 38.3785 6.5227 38.4829 6.34106 38.6647C6.15845 38.8463 6.05396 39.0983 6.05396 39.3551C6.05396 39.6119 6.15845 39.8639 6.34106 40.0454C6.5227 40.2272 6.77456 40.3317 7.03149 40.3317C7.28833 40.3317 7.53921 40.2272 7.72183 40.0454C7.90347 39.8639 8.00698 39.6119 8.00698 39.3551C8.00698 39.0983 7.90347 38.8463 7.72183 38.6647Z" fill="#8257E5"/>
<path d="M7.72183 45.1498C7.54028 44.968 7.28833 44.8636 7.03149 44.8636C6.77358 44.8636 6.5227 44.968 6.34106 45.1498C6.15845 45.3314 6.05396 45.5834 6.05396 45.8402C6.05396 46.097 6.15845 46.349 6.34106 46.5305C6.5227 46.7132 6.77456 46.8168 7.03149 46.8168C7.28833 46.8168 7.53921 46.7132 7.72183 46.5305C7.90347 46.349 8.00698 46.0979 8.00698 45.8402C8.00698 45.5834 7.90347 45.3314 7.72183 45.1498Z" fill="#8257E5"/>
<path d="M13.0855 35.156H8.00762V32.7635H11.4063C11.6967 32.7635 11.9718 32.6344 12.1573 32.4113C12.3428 32.188 12.4195 31.8939 12.3664 31.6084L11.1069 24.8339C11.021 24.3714 10.6174 24.0359 10.1469 24.0359H3.91543C3.44492 24.0359 3.04131 24.3714 2.95527 24.8339L1.6959 31.6084C1.64287 31.8939 1.71953 32.188 1.90508 32.4113C2.09063 32.6344 2.36592 32.7635 2.65605 32.7635H6.05459V35.156H0.976562C0.437305 35.156 0 35.5933 0 36.1326V49.0228C0 49.5621 0.437305 49.9994 0.976562 49.9994H13.0856C13.6249 49.9994 14.0622 49.5621 14.0622 49.0228V36.1326C14.0621 35.5932 13.6248 35.156 13.0855 35.156ZM3.83076 30.8104L4.72715 25.9889H9.33516L10.2316 30.8104H3.83076ZM12.1091 48.0463H1.95303V43.5542H12.109V48.0463H12.1091ZM12.1091 41.6011H1.95303V37.109H12.109V41.6011H12.1091Z" fill="#8257E5"/>
<path d="M44.3361 6.44585H42.6484L33.9702 0.185303C33.629 -0.060791 33.1687 -0.060791 32.8275 0.185303L24.1494 6.44585H22.4617C21.9224 6.44585 21.4851 6.88315 21.4851 7.42241V19.1409C21.485 19.6801 21.9222 20.1174 22.4616 20.1174H25.2626C25.2793 20.1178 25.2959 20.1178 25.3125 20.1174H44.336C44.8752 20.1174 45.3125 19.6801 45.3125 19.1409V7.42241C45.3125 6.88315 44.8752 6.44585 44.3361 6.44585ZM33.3989 2.1814L39.31 6.44585H27.4876L33.3989 2.1814ZM27.6464 18.1643L31.7845 14.0262L35.9226 18.1643H27.6464ZM38.6848 18.1643L37.6106 17.0901L39.2568 15.4439L41.9771 18.1642H38.6848V18.1643ZM43.3595 16.7844L39.9474 13.3723C39.566 12.9911 38.9478 12.9911 38.5663 13.3723L36.2295 15.709L32.4751 11.9546C32.0937 11.5734 31.4755 11.5734 31.094 11.9546L24.8843 18.1643H23.438V8.39897H23.4381H43.3594V16.7844H43.3595Z" fill="#8257E5"/>
<path d="M28.9621 9.24048C28.4566 9.24048 27.9709 9.36538 27.5395 9.60083C27.1081 9.36538 26.6223 9.24048 26.1169 9.24048C25.5777 9.24048 25.1404 9.67778 25.1404 10.217C25.1404 10.7563 25.5777 11.1936 26.1169 11.1936C26.3923 11.1936 26.6511 11.3017 26.8454 11.4981C27.0289 11.6833 27.2788 11.7877 27.5395 11.7877C27.8002 11.7877 28.0501 11.6834 28.2336 11.4981C28.4279 11.3017 28.6867 11.1936 28.9621 11.1936C29.5013 11.1936 29.9386 10.7563 29.9386 10.217C29.9386 9.67778 29.5013 9.24048 28.9621 9.24048Z" fill="#8257E5"/>
<path d="M38.2794 10.7444C37.774 10.7444 37.2883 10.8693 36.8569 11.1046C36.4254 10.8693 35.9397 10.7444 35.4343 10.7444C34.8951 10.7444 34.4578 11.1817 34.4578 11.7209C34.4578 12.2602 34.8951 12.6975 35.4343 12.6975C35.7097 12.6975 35.9685 12.8056 36.1628 13.002C36.3463 13.1873 36.5962 13.2916 36.8569 13.2916C37.1175 13.2916 37.3675 13.1874 37.5509 13.002C37.7453 12.8056 38.0041 12.6975 38.2794 12.6975C38.8187 12.6975 39.256 12.2602 39.256 11.7209C39.256 11.1817 38.8187 10.7444 38.2794 10.7444Z" fill="#8257E5"/>
<path d="M30.2612 38.1764C30.0796 37.9948 29.8276 37.8903 29.5708 37.8903C29.314 37.8903 29.062 37.9947 28.8804 38.1764C28.6988 38.358 28.5942 38.61 28.5942 38.8668C28.5942 39.1237 28.6987 39.3756 28.8804 39.5572C29.0621 39.7389 29.3141 39.8434 29.5708 39.8434C29.8286 39.8434 30.0796 39.7389 30.2612 39.5572C30.4438 39.3756 30.5474 39.1237 30.5474 38.8668C30.5473 38.61 30.4438 38.358 30.2612 38.1764Z" fill="#8257E5"/>
</g>
<defs>
<clipPath id="clip0_213_3">
<rect width="50" height="50" fill="white"/>
</clipPath>
</defs>
</svg>
