<svg width="51" height="51" viewBox="0 0 51 51" fill="none" xmlns="http://www.w3.org/2000/svg">
<g clip-path="url(#clip0_209_128)">
<path d="M48.5275 32.3551H47.1931V28.8356C47.2031 27.5019 46.6837 26.2187 45.7489 25.2674C44.814 24.3162 43.5401 23.7746 42.2064 23.7614H12.8181V12.5637H16.7244C16.8431 12.5637 16.9603 12.5366 17.067 12.4845C17.1738 12.4324 17.2672 12.3567 17.3403 12.2631C17.4133 12.1695 17.4641 12.0604 17.4887 11.9442C17.5133 11.8281 17.511 11.7078 17.4822 11.5926L15.3962 3.25901C15.354 3.09046 15.2568 2.94079 15.12 2.83368C14.9832 2.72657 14.8145 2.66813 14.6408 2.6676H9.43296C9.25866 2.66743 9.08931 2.72555 8.95185 2.83272C8.81439 2.93988 8.71672 3.08994 8.67437 3.25901L6.59155 11.5926C6.5627 11.7078 6.56048 11.8281 6.58507 11.9442C6.60966 12.0604 6.66042 12.1695 6.73348 12.2631C6.80654 12.3567 6.89998 12.4324 7.0067 12.4845C7.11342 12.5366 7.23061 12.5637 7.34937 12.5637H11.2556V23.7614H7.64858C6.31493 23.7746 5.04095 24.3162 4.10611 25.2674C3.17126 26.2187 2.65187 27.5019 2.66187 28.8356V32.3551H2.10874C1.63396 32.3555 1.17875 32.5443 0.843034 32.88C0.507316 33.2157 0.318529 33.671 0.318115 34.1457L0.318115 44.0739C0.318115 44.2811 0.400425 44.4798 0.546938 44.6263C0.693451 44.7728 0.892165 44.8551 1.09937 44.8551H2.66187V46.0746C2.66249 46.5798 2.86344 47.0641 3.22065 47.4213C3.57786 47.7785 4.06216 47.9795 4.56733 47.9801H46.0689C46.5741 47.9795 47.0584 47.7785 47.4156 47.4213C47.7728 47.0641 47.9737 46.5798 47.9744 46.0746V44.8551H49.5369C49.7441 44.8551 49.9428 44.7728 50.0893 44.6263C50.2358 44.4798 50.3181 44.2811 50.3181 44.0739V34.1457C50.3177 33.671 50.1289 33.2157 49.7932 32.88C49.4575 32.5443 49.0023 32.3555 48.5275 32.3551ZM8.35015 11.0012L10.0423 4.2301H14.0314L15.7236 11.0012H8.35015ZM4.1978 28.8356C4.19093 27.9126 4.55035 27.0247 5.19724 26.3664C5.84412 25.708 6.72568 25.3331 7.64858 25.3239H42.2064C43.1293 25.3331 44.0109 25.708 44.6577 26.3664C45.3046 27.0247 45.6641 27.9126 45.6572 28.8356V32.3551H45.0775C44.6027 32.3555 44.1475 32.5443 43.8118 32.88C43.4761 33.2157 43.2873 33.671 43.2869 34.1457V36.2614H7.34937V34.1457C7.34895 33.671 7.16016 33.2157 6.82445 32.88C6.48873 32.5443 6.03352 32.3555 5.55874 32.3551H4.1978V28.8356ZM43.2869 37.8239V43.2926H7.34937V37.8239H43.2869ZM1.88062 43.2926V34.1457C1.88062 34.0852 1.90465 34.0272 1.94743 33.9844C1.99021 33.9416 2.04824 33.9176 2.10874 33.9176H5.55874C5.61924 33.9176 5.67727 33.9416 5.72005 33.9844C5.76283 34.0272 5.78687 34.0852 5.78687 34.1457V43.2926H1.88062ZM46.4119 46.0746C46.4117 46.1655 46.3755 46.2526 46.3112 46.3169C46.2469 46.3812 46.1598 46.4174 46.0689 46.4176H4.56733C4.47644 46.4174 4.38932 46.3812 4.32505 46.3169C4.26077 46.2526 4.22457 46.1655 4.22437 46.0746V44.8551H46.4119V46.0746ZM48.7556 43.2926H44.8494V34.1457C44.8494 34.0852 44.8734 34.0272 44.9162 33.9844C44.959 33.9416 45.017 33.9176 45.0775 33.9176H48.5275C48.588 33.9176 48.646 33.9416 48.6888 33.9844C48.7316 34.0272 48.7556 34.0852 48.7556 34.1457V43.2926Z" fill="#8257E5"/>
<path d="M12.8181 26.8864H11.2556V28.4489H12.8181V26.8864Z" fill="#8257E5"/>
<path d="M12.8181 31.5739H11.2556V33.1364H12.8181V31.5739Z" fill="#8257E5"/>
<path d="M39.3806 26.8864H37.8181V28.4489H39.3806V26.8864Z" fill="#8257E5"/>
<path d="M39.3806 31.5739H37.8181V33.1364H39.3806V31.5739Z" fill="#8257E5"/>
<path d="M26.0994 26.8864H24.5369V28.4489H26.0994V26.8864Z" fill="#8257E5"/>
<path d="M26.0994 31.5739H24.5369V33.1364H26.0994V31.5739Z" fill="#8257E5"/>
<path d="M20.6306 21.4176H46.4119C46.6191 21.4176 46.8178 21.3353 46.9643 21.1888C47.1108 21.0423 47.1931 20.8436 47.1931 20.6364V4.2301C47.1931 4.0229 47.1108 3.82419 46.9643 3.67768C46.8178 3.53116 46.6191 3.44885 46.4119 3.44885H20.6306C20.4234 3.44885 20.2247 3.53116 20.0782 3.67768C19.9317 3.82419 19.8494 4.0229 19.8494 4.2301V20.6364C19.8494 20.8436 19.9317 21.0423 20.0782 21.1888C20.2247 21.3353 20.4234 21.4176 20.6306 21.4176ZM21.4119 5.01135H45.6306V19.8551H21.4119V5.01135Z" fill="#8257E5"/>
<path d="M44.0681 5.7926H22.9744C22.7672 5.7926 22.5685 5.87491 22.4219 6.02143C22.2754 6.16794 22.1931 6.36665 22.1931 6.57385V18.2926C22.1931 18.4998 22.2754 18.6985 22.4219 18.845C22.5685 18.9915 22.7672 19.0739 22.9744 19.0739H44.0681C44.2753 19.0739 44.474 18.9915 44.6205 18.845C44.7671 18.6985 44.8494 18.4998 44.8494 18.2926V6.57385C44.8494 6.36665 44.7671 6.16794 44.6205 6.02143C44.474 5.87491 44.2753 5.7926 44.0681 5.7926ZM43.2869 17.5114H23.7556V7.3551H43.2869V17.5114Z" fill="#8257E5"/>
</g>
<defs>
<clipPath id="clip0_209_128">
<rect width="50" height="50" fill="white" transform="translate(0.318115 0.323853)"/>
</clipPath>
</defs>
</svg>
