<svg width="55" height="55" viewBox="0 0 55 55" fill="none" xmlns="http://www.w3.org/2000/svg">
<path d="M27.5 31.1669C27.5 37.2433 32.4236 42.1669 38.5 42.1669H42.1669V45.8332H34.8332V49.5H49.5V31.1669H27.5Z" fill="#8257E5"/>
<path d="M20.1669 12.8332C20.1669 8.7835 16.8834 5.5 12.8332 5.5C8.78295 5.5 5.5 8.7835 5.5 12.8332V49.5H9.16685V12.8332C9.16685 10.8081 10.8086 9.1663 12.8337 9.1663C14.8588 9.1663 16.5 10.8086 16.5 12.8332L11.9169 14.6663V16.5H24.75V14.6669L20.1669 12.8332Z" fill="#8257E5"/>
<path d="M15.125 21.0831C15.8844 21.0831 16.5 20.4675 16.5 19.7081C16.5 18.9487 15.8844 18.3331 15.125 18.3331C14.3656 18.3331 13.75 18.9487 13.75 19.7081C13.75 20.4675 14.3656 21.0831 15.125 21.0831Z" fill="#8257E5"/>
<path d="M18.3333 24.75C19.0926 24.75 19.7083 24.1344 19.7083 23.375C19.7083 22.6156 19.0926 22 18.3333 22C17.5739 22 16.9583 22.6156 16.9583 23.375C16.9583 24.1344 17.5739 24.75 18.3333 24.75Z" fill="#8257E5"/>
<path d="M21.5417 21.0831C22.3011 21.0831 22.9167 20.4675 22.9167 19.7081C22.9167 18.9487 22.3011 18.3331 21.5417 18.3331C20.7824 18.3331 20.1667 18.9487 20.1667 19.7081C20.1667 20.4675 20.7824 21.0831 21.5417 21.0831Z" fill="#8257E5"/>
<path d="M15.125 28.4169C15.8844 28.4169 16.5 27.8013 16.5 27.0419C16.5 26.2825 15.8844 25.6669 15.125 25.6669C14.3656 25.6669 13.75 26.2825 13.75 27.0419C13.75 27.8013 14.3656 28.4169 15.125 28.4169Z" fill="#8257E5"/>
<path d="M18.3333 32.0831C19.0926 32.0831 19.7083 31.4675 19.7083 30.7081C19.7083 29.9487 19.0926 29.3331 18.3333 29.3331C17.5739 29.3331 16.9583 29.9487 16.9583 30.7081C16.9583 31.4675 17.5739 32.0831 18.3333 32.0831Z" fill="#8257E5"/>
<path d="M21.5417 28.4169C22.3011 28.4169 22.9167 27.8013 22.9167 27.0419C22.9167 26.2825 22.3011 25.6669 21.5417 25.6669C20.7824 25.6669 20.1667 26.2825 20.1667 27.0419C20.1667 27.8013 20.7824 28.4169 21.5417 28.4169Z" fill="#8257E5"/>
<path d="M15.125 35.75C15.8844 35.75 16.5 35.1344 16.5 34.375C16.5 33.6156 15.8844 33 15.125 33C14.3656 33 13.75 33.6156 13.75 34.375C13.75 35.1344 14.3656 35.75 15.125 35.75Z" fill="#8257E5"/>
<path d="M18.3333 39.4169C19.0926 39.4169 19.7083 38.8013 19.7083 38.0419C19.7083 37.2825 19.0926 36.6669 18.3333 36.6669C17.5739 36.6669 16.9583 37.2825 16.9583 38.0419C16.9583 38.8013 17.5739 39.4169 18.3333 39.4169Z" fill="#8257E5"/>
<path d="M21.5417 35.75C22.3011 35.75 22.9167 35.1344 22.9167 34.375C22.9167 33.6156 22.3011 33 21.5417 33C20.7824 33 20.1667 33.6156 20.1667 34.375C20.1667 35.1344 20.7824 35.75 21.5417 35.75Z" fill="#8257E5"/>
<path d="M15.125 43.0831C15.8844 43.0831 16.5 42.4675 16.5 41.7081C16.5 40.9487 15.8844 40.3331 15.125 40.3331C14.3656 40.3331 13.75 40.9487 13.75 41.7081C13.75 42.4675 14.3656 43.0831 15.125 43.0831Z" fill="#8257E5"/>
<path d="M21.5417 43.0831C22.3011 43.0831 22.9167 42.4675 22.9167 41.7081C22.9167 40.9487 22.3011 40.3331 21.5417 40.3331C20.7824 40.3331 20.1667 40.9487 20.1667 41.7081C20.1667 42.4675 20.7824 43.0831 21.5417 43.0831Z" fill="#8257E5"/>
<path d="M49.4999 19.25H42.1667V28.4169H49.4999V19.25Z" fill="#8257E5"/>
</svg>
