<svg width="50" height="50" viewBox="0 0 50 50" fill="none" xmlns="http://www.w3.org/2000/svg">
<path d="M24.9999 23.9129H35.3476L36.426 5.7454C36.426 4.50238 35.9321 3.31029 35.0532 2.43133C34.1742 1.55238 32.9821 1.05855 31.7391 1.05847H18.2607C17.0176 1.05855 15.8255 1.55238 14.9466 2.43133C14.0676 3.31029 13.5738 4.50238 13.5737 5.7454L14.6522 23.9129H24.9999Z" fill="#2F2E41"/>
<path d="M10.8317 24.7198C11.0305 24.706 11.2247 24.6531 11.4031 24.5642C11.5815 24.4754 11.7406 24.3523 11.8714 24.2019C12.0022 24.0516 12.1021 23.8769 12.1654 23.6879C12.2287 23.499 12.2542 23.2994 12.2404 23.1006L11.6461 14.5547C11.634 14.394 11.6065 14.2348 11.5642 14.0793C11.3937 13.4698 10.9883 12.953 10.4369 12.6423C9.88561 12.3317 9.2335 12.2526 8.6239 12.4225C8.0143 12.5924 7.4971 12.9974 7.18596 13.5485C6.87481 14.0995 6.79517 14.7516 6.96455 15.3613L9.26457 23.6133C9.35859 23.9499 9.56582 24.2438 9.85131 24.4453C10.1368 24.6469 10.4831 24.7438 10.8317 24.7198Z" fill="#8257E5"/>
<path d="M38.5689 44.0109C38.3012 42.3085 37.4349 40.7574 36.1259 39.6365C34.8168 38.5156 33.1508 37.8985 31.4275 37.8961H18.5723C16.849 37.8985 15.183 38.5156 13.8739 39.6365C12.5649 40.7574 11.6986 42.3085 11.4309 44.0109C10.906 44.257 10.4789 44.672 10.2178 45.1895C9.95669 45.707 9.87677 46.2972 9.9908 46.8656C10.1048 47.4339 10.4062 47.9476 10.8467 48.3243C11.2873 48.7011 11.8414 48.9192 12.4206 48.9438C12.9997 48.9683 13.5704 48.7978 14.0412 48.4597C14.512 48.1215 14.8557 47.6352 15.0174 47.0785C15.1791 46.5218 15.1494 45.927 14.933 45.3893C14.7166 44.8515 14.3261 44.4018 13.8239 44.1123C14.0569 43.0254 14.6552 42.0511 15.5192 41.3517C16.3832 40.6523 17.4608 40.2701 18.5723 40.2687H23.8136V44.0541C23.2979 44.32 22.8864 44.7516 22.6454 45.2795C22.4044 45.8073 22.3478 46.4009 22.4846 46.9648C22.6215 47.5288 22.9438 48.0303 23.4 48.389C23.8561 48.7477 24.4196 48.9428 24.9999 48.9428C25.5802 48.9428 26.1437 48.7477 26.5998 48.389C27.056 48.0303 27.3783 47.5288 27.5152 46.9648C27.652 46.4009 27.5954 45.8073 27.3544 45.2795C27.1134 44.7516 26.7019 44.32 26.1862 44.0541V40.2687H31.4275C32.539 40.2701 33.6166 40.6523 34.4806 41.3517C35.3446 42.0511 35.9429 43.0254 36.1759 44.1123C35.6747 44.4017 35.285 44.8509 35.0692 45.3879C34.8535 45.925 34.824 46.5189 34.9856 47.0746C35.1473 47.6304 35.4906 48.1159 35.9608 48.4534C36.4309 48.791 37.0006 48.9612 37.5789 48.9367C38.1572 48.9122 38.7105 48.6944 39.1504 48.3183C39.5903 47.9422 39.8913 47.4294 40.0054 46.862C40.1194 46.2946 40.0399 45.7053 39.7795 45.1884C39.5191 44.6715 39.0928 44.2569 38.5689 44.0109Z" fill="#8257E5"/>
<path d="M38.8871 27.3694H11.1128C10.6581 27.369 10.2139 27.5056 9.8381 27.7614C9.46228 28.0173 9.17231 28.3805 9.00603 28.8036C8.83975 29.2268 8.80488 29.6902 8.90598 30.1335C9.00708 30.5768 9.23945 30.9793 9.57276 31.2885C9.58571 31.2993 9.59757 31.3111 9.61051 31.3219C10.4064 32.0445 11.6714 32.6462 12.9731 33.1218C15.4232 34.0051 18.0095 34.4512 20.6139 34.4397H29.386C31.9905 34.4512 34.5767 34.0051 37.0268 33.1218C38.3285 32.6462 39.5935 32.0445 40.3894 31.3219C40.4023 31.3111 40.4142 31.2992 40.4272 31.2885C40.7605 30.9793 40.9928 30.5768 41.0939 30.1335C41.195 29.6902 41.1602 29.2268 40.9939 28.8036C40.8276 28.3805 40.5376 28.0173 40.1618 27.7614C39.786 27.5056 39.3418 27.369 38.8871 27.3694Z" fill="#2F2E41"/>
<path d="M41.3766 12.4205C41.0745 12.3364 40.7589 12.3125 40.4477 12.3503C40.1364 12.3881 39.8357 12.4868 39.5626 12.6409C39.2895 12.7949 39.0495 13.0012 38.8561 13.248C38.6628 13.4949 38.5199 13.7773 38.4357 14.0793C38.3934 14.2348 38.3659 14.394 38.3538 14.5547L37.7595 23.1006C37.7334 23.4757 37.8475 23.8471 38.0795 24.1428C38.3116 24.4386 38.6452 24.6377 39.0158 24.7015C39.3863 24.7654 39.7673 24.6894 40.085 24.4884C40.4027 24.2873 40.6344 23.9755 40.7353 23.6134L43.0354 15.3614C43.2054 14.7514 43.1261 14.0989 42.815 13.5474C42.5039 12.9959 41.9865 12.5906 41.3766 12.4205Z" fill="#8257E5"/>
</svg>
