<svg width="48" height="50" viewBox="0 0 48 50" fill="none" xmlns="http://www.w3.org/2000/svg">
<path d="M41 23.9583H23V19.7916C23 19.5154 23.1054 19.2504 23.2929 19.0551C23.4804 18.8597 23.7348 18.75 24 18.75C24.2652 18.75 24.5196 18.8597 24.7071 19.0551C24.8946 19.2504 25 19.5154 25 19.7916V20.8333C25 21.1096 25.1054 21.3745 25.2929 21.5699C25.4804 21.7652 25.7348 21.875 26 21.875C26.2652 21.875 26.5196 21.7652 26.7071 21.5699C26.8946 21.3745 27 21.1096 27 20.8333V19.7916C27 18.9628 26.6839 18.168 26.1213 17.5819C25.5587 16.9959 24.7956 16.6666 24 16.6666C23.2044 16.6666 22.4413 16.9959 21.8787 17.5819C21.3161 18.168 21 18.9628 21 19.7916V23.9583H7C6.46957 23.9583 5.96086 24.1778 5.58579 24.5685C5.21071 24.9592 5 25.4891 5 26.0416V43.75C5 44.3025 5.21071 44.8324 5.58579 45.2231C5.96086 45.6138 6.46957 45.8333 7 45.8333H41C41.5304 45.8333 42.0391 45.6138 42.4142 45.2231C42.7893 44.8324 43 44.3025 43 43.75V26.0416C43 25.4891 42.7893 24.9592 42.4142 24.5685C42.0391 24.1778 41.5304 23.9583 41 23.9583ZM41 26.0416V29.1666H31V26.0416H41ZM29 26.0416V29.1666H19V26.0416H29ZM7 26.0416H17V29.1666H7V26.0416ZM7 43.75V31.25H17V43.75H7ZM19 43.75V31.25H29V43.75H19ZM41 43.75H31V31.25H41V43.75Z" fill="#8257E5"/>
<path d="M41 4.16663H7C6.46957 4.16663 5.96086 4.38612 5.58579 4.77682C5.21071 5.16752 5 5.69743 5 6.24996V12.5C5 13.0525 5.21071 13.5824 5.58579 13.9731C5.96086 14.3638 6.46957 14.5833 7 14.5833H41C41.5304 14.5833 42.0391 14.3638 42.4142 13.9731C42.7893 13.5824 43 13.0525 43 12.5V6.24996C43 5.69743 42.7893 5.16752 42.4142 4.77682C42.0391 4.38612 41.5304 4.16663 41 4.16663ZM41 6.24996V8.33329H31V6.24996H41ZM7 12.5V6.24996H17V12.5H7ZM19 12.5V6.24996H29V12.5H19ZM31 12.5V10.4166H41V12.5H31Z" fill="#8257E5"/>
<path d="M15 35.4166C14.7348 35.4166 14.4804 35.5264 14.2929 35.7217C14.1054 35.9171 14 36.182 14 36.4583V38.5416C14 38.8179 14.1054 39.0828 14.2929 39.2782C14.4804 39.4735 14.7348 39.5833 15 39.5833C15.2652 39.5833 15.5196 39.4735 15.7071 39.2782C15.8946 39.0828 16 38.8179 16 38.5416V36.4583C16 36.182 15.8946 35.9171 15.7071 35.7217C15.5196 35.5264 15.2652 35.4166 15 35.4166Z" fill="#8257E5"/>
<path d="M27 35.4166C26.7348 35.4166 26.4804 35.5264 26.2929 35.7217C26.1054 35.9171 26 36.182 26 36.4583V38.5416C26 38.8179 26.1054 39.0828 26.2929 39.2782C26.4804 39.4735 26.7348 39.5833 27 39.5833C27.2652 39.5833 27.5196 39.4735 27.7071 39.2782C27.8946 39.0828 28 38.8179 28 38.5416V36.4583C28 36.182 27.8946 35.9171 27.7071 35.7217C27.5196 35.5264 27.2652 35.4166 27 35.4166Z" fill="#8257E5"/>
<path d="M39 39.5833C39.2652 39.5833 39.5196 39.4735 39.7071 39.2782C39.8946 39.0828 40 38.8179 40 38.5416V36.4583C40 36.182 39.8946 35.9171 39.7071 35.7217C39.5196 35.5264 39.2652 35.4166 39 35.4166C38.7348 35.4166 38.4804 35.5264 38.2929 35.7217C38.1054 35.9171 38 36.182 38 36.4583V38.5416C38 38.8179 38.1054 39.0828 38.2929 39.2782C38.4804 39.4735 38.7348 39.5833 39 39.5833Z" fill="#8257E5"/>
</svg>
