<svg width="50" height="50" viewBox="0 0 50 50" fill="none" xmlns="http://www.w3.org/2000/svg">
<path d="M44.027 31.798H42.9237C42.9222 31.798 42.9208 31.798 42.9192 31.798H41.1757L37.9652 24.2355C37.1838 22.3948 35.3867 21.2054 33.3869 21.2054H20.3907C18.3909 21.2054 16.5938 22.3948 15.8124 24.2355L12.602 31.798H11.2466C10.5278 31.798 9.83838 31.9258 9.19961 32.1595V18.6523H15.2344C16.5267 18.6523 17.5781 17.6009 17.5781 16.3086V4.98047C17.5781 3.68818 16.5267 2.63672 15.2344 2.63672H2.34375C1.05146 2.63672 0 3.68818 0 4.98047V16.3086C0 17.6009 1.05146 18.6523 2.34375 18.6523H7.24639V33.3396C6.03565 34.4334 5.27344 36.0148 5.27344 37.7712V43.4673C5.27344 43.7266 5.37656 43.9752 5.56006 44.1584C5.74316 44.3412 5.99131 44.4438 6.25 44.4438C6.25049 44.4438 6.25107 44.4438 6.25156 44.4438L7.24648 44.4423V45.4102H0.976562C0.437305 45.4102 0 45.8474 0 46.3867C0 46.9261 0.437305 47.3633 0.976562 47.3633H20.2135C20.7527 47.3633 21.19 46.9261 21.19 46.3867C21.19 45.8474 20.7527 45.4102 20.2135 45.4102H18.9282C19.1032 45.108 19.2399 44.7811 19.3293 44.4351H26.7646C26.8054 44.4402 26.8467 44.4438 26.8889 44.4438C26.9311 44.4438 26.9724 44.4402 27.0132 44.4351H37.3463C37.4357 44.7811 37.5724 45.1081 37.7474 45.4102H30.7617C30.2225 45.4102 29.7852 45.8474 29.7852 46.3867C29.7852 46.9261 30.2225 47.3633 30.7617 47.3633H46.1233C46.6626 47.3633 47.0999 46.9261 47.0999 46.3867C47.0999 45.8474 46.6626 45.4102 46.1233 45.4102H44.5104C44.6853 45.1083 44.8219 44.7816 44.9112 44.436L49.0216 44.4438C49.0222 44.4438 49.0228 44.4438 49.0234 44.4438C49.282 44.4438 49.5302 44.3412 49.7133 44.1585C49.8968 43.9753 50 43.7267 50 43.4673V37.7712C50 34.4776 47.3205 31.798 44.027 31.798ZM2.34375 16.6992C2.12832 16.6992 1.95312 16.524 1.95312 16.3086V4.98047C1.95312 4.76504 2.12832 4.58984 2.34375 4.58984H15.2344C15.4498 4.58984 15.625 4.76504 15.625 4.98047V16.3086C15.625 16.524 15.4498 16.6992 15.2344 16.6992H2.34375ZM7.22656 37.7712C7.22656 37.3452 7.29375 36.9349 7.41699 36.5493H9.22168V38.5714H7.22656V37.7712ZM9.19951 45.4102V44.4392L11.7641 44.4352C11.8534 44.7812 11.99 45.1081 12.1651 45.4102H9.19951ZM15.5749 45.4102H15.5185C14.4546 45.3948 13.5936 44.5259 13.5936 43.4585C13.5936 42.3815 14.4697 41.5054 15.5467 41.5054C16.6236 41.5054 17.4998 42.3815 17.4998 43.4585C17.4998 44.5259 16.6388 45.3948 15.5749 45.4102ZM25.9123 42.4819H19.3294C18.8946 40.799 17.3636 39.5522 15.5468 39.5522C13.73 39.5522 12.1988 40.7991 11.7642 42.482L7.22656 42.4892V40.5245H10.1982C10.7375 40.5245 11.1748 40.0873 11.1748 39.548V35.5728C11.1748 35.0334 10.7375 34.5962 10.1982 34.5962H8.78525C9.46592 34.0673 10.3197 33.7513 11.2465 33.7513H13.2482H25.9123V42.4819ZM25.9123 31.7981H20.1637L22.9779 28.984C23.3593 28.6026 23.3593 27.9843 22.9779 27.6029C22.5966 27.2216 21.9784 27.2216 21.5968 27.6029L17.4014 31.7982H14.7237L17.6103 24.9988C18.0848 23.8809 19.1762 23.1586 20.3907 23.1586H25.9123V31.7981ZM47.5626 35.8597H44.9398L44.2685 33.7591C45.6915 33.8438 46.9178 34.6717 47.5626 35.8597ZM27.8654 23.1585H33.148L30.0912 26.2152C29.7099 26.5966 29.7099 27.2149 30.0912 27.5963C30.2819 27.787 30.5318 27.8823 30.7817 27.8823C31.0316 27.8823 31.2815 27.7869 31.4723 27.5963L35.2595 23.8091C35.6487 24.1168 35.9646 24.5212 36.1673 24.9986L39.0538 31.798H27.8654V23.1585ZM41.1571 45.4102H41.1007C40.0368 45.3948 39.1758 44.5259 39.1758 43.4585C39.1758 42.3815 40.052 41.5054 41.1289 41.5054C42.2059 41.5054 43.082 42.3815 43.082 43.4585C43.082 44.5259 42.221 45.3948 41.1571 45.4102ZM48.0469 42.4889L44.9118 42.4829C44.4774 40.7995 42.946 39.5522 41.1289 39.5522C39.3121 39.5522 37.7811 40.799 37.3463 42.4819H27.8654V33.7513H40.5294H42.2153L43.2966 37.1337C43.4259 37.5383 43.8021 37.8129 44.2268 37.8129H48.0469V42.4889Z" fill="#8257E5"/>
<path d="M22.4912 36.5773C21.952 36.5773 21.5146 37.0145 21.5146 37.5538V37.5669C21.5146 38.1063 21.9519 38.5435 22.4912 38.5435C23.0305 38.5435 23.4678 38.1063 23.4678 37.5669V37.5538C23.4678 37.0145 23.0305 36.5773 22.4912 36.5773Z" fill="#8257E5"/>
<path d="M9.57031 6.31506H7.61719C7.07793 6.31506 6.64062 6.75227 6.64062 7.29163V9.24475V11.1979V13.9974C6.64062 14.5367 7.07793 14.9739 7.61719 14.9739C8.15645 14.9739 8.59375 14.5367 8.59375 13.9974V12.1744H9.57031C11.1857 12.1744 12.5 10.8602 12.5 9.24475C12.5 7.62932 11.1857 6.31506 9.57031 6.31506ZM9.57031 10.2214H8.59375V9.24485V8.26829H9.57031C10.1088 8.26829 10.5469 8.70637 10.5469 9.24485C10.5469 9.78333 10.1088 10.2214 9.57031 10.2214Z" fill="#8257E5"/>
<path d="M27.5771 45.696C27.3956 45.5144 27.1437 45.4099 26.8867 45.4099C26.6289 45.4099 26.3779 45.5144 26.1964 45.696C26.0147 45.8777 25.9102 46.1296 25.9102 46.3865C25.9102 46.6443 26.0146 46.8953 26.1964 47.0769C26.3779 47.2585 26.6299 47.363 26.8867 47.363C27.1437 47.363 27.3956 47.2585 27.5771 47.0769C27.7588 46.8953 27.8633 46.6433 27.8633 46.3865C27.8633 46.1296 27.7589 45.8777 27.5771 45.696Z" fill="#8257E5"/>
</svg>
